<svg width="1600" height="860" viewBox="0 0 1600 860" fill="none" xmlns="http://www.w3.org/2000/svg" role="img" aria-labelledby="title desc">
  <title id="title">CloudOTP 账号管理页预览</title>
  <desc id="desc">当前紧凑版账号管理页，展示搜索、分类筛选、验证码、分享与编辑。</desc>
  <defs>
    <linearGradient id="bg" x1="0" y1="0" x2="1600" y2="860"><stop stop-color="#F8FAFC"/><stop offset="1" stop-color="#EEF2FF"/></linearGradient>
    <linearGradient id="p" x1="0" y1="0" x2="1" y2="1"><stop stop-color="#7C5CFF"/><stop offset="1" stop-color="#4F46E5"/></linearGradient>
    <filter id="s"><feDropShadow dx="0" dy="18" stdDeviation="28" flood-color="#0F172A" flood-opacity=".10"/></filter>
  </defs>
  <rect width="1600" height="860" fill="url(#bg)"/>
  <g filter="url(#s)">
    <rect x="240" y="86" width="1120" height="66" rx="26" fill="#fff" stroke="#DBE3EE"/>
    <rect x="264" y="105" width="32" height="32" rx="10" fill="url(#p)"/>
    <text x="314" y="127" fill="#0F172A" font-family="Inter, Arial, sans-serif" font-size="22" font-weight="900">2FA 管理</text>
    <rect x="780" y="104" width="138" height="36" rx="18" fill="#EEF2FF"/>
    <text x="820" y="128" fill="#111827" font-family="Inter, Arial, sans-serif" font-size="16" font-weight="900">账号管理</text>
    <text x="966" y="128" fill="#111827" font-family="Inter, Arial, sans-serif" font-size="16" font-weight="900">分类管理</text>
  </g>
  <g filter="url(#s)">
    <rect x="350" y="205" width="900" height="38" rx="19" fill="#fff" stroke="#DBE3EE"/>
    <text x="436" y="230" fill="#94A3B8" font-family="Inter, Arial, sans-serif" font-size="14" font-weight="700">搜索账号、类型或备注</text>
    <rect x="1062" y="205" width="138" height="38" rx="19" fill="url(#p)"/>
    <text x="1104" y="230" fill="#fff" font-family="Inter, Arial, sans-serif" font-size="14" font-weight="900">添加账号</text>
    <rect x="350" y="266" width="900" height="312" rx="20" fill="#fff" stroke="#DBE3EE"/>
    <rect x="350" y="266" width="900" height="48" rx="20" fill="#F8FAFC"/>
    <text x="378" y="296" fill="#64748B" font-family="Inter, Arial, sans-serif" font-size="14" font-weight="900">名称</text>
    <text x="705" y="296" fill="#64748B" font-family="Inter, Arial, sans-serif" font-size="14" font-weight="900">分类</text>
    <text x="792" y="296" fill="#64748B" font-family="Inter, Arial, sans-serif" font-size="14" font-weight="900">编号</text>
    <text x="910" y="296" fill="#64748B" font-family="Inter, Arial, sans-serif" font-size="14" font-weight="900">验证码</text>
    <text x="1074" y="296" fill="#64748B" font-family="Inter, Arial, sans-serif" font-size="14" font-weight="900">分享</text>
    <g font-family="Inter, Arial, sans-serif">
      <text x="378" y="372" fill="#0F172A" font-size="24" font-weight="900">OpenAI</text>
      <text x="378" y="400" fill="#64748B" font-size="14" font-weight="800">AmMason001@outlook.com</text>
      <rect x="378" y="422" width="58" height="28" rx="14" fill="#DCFCE7"/><text x="392" y="442" fill="#16A34A" font-size="15" font-weight="900">启用</text>
      <rect x="690" y="385" width="48" height="32" rx="10" fill="#DBEAFE"/><text x="705" y="407" fill="#284CFF" font-size="16" font-weight="900">AI</text>
      <rect x="780" y="385" width="52" height="32" rx="10" fill="#F1F5F9"/><text x="794" y="407" fill="#0F172A" font-size="18" font-weight="900">01</text>
      <rect x="874" y="375" width="136" height="44" rx="11" fill="#F8FBFF" stroke="#CFE0FF" stroke-width="2"/><text x="896" y="405" fill="#0F172A" font-family="SFMono-Regular, Menlo, monospace" font-size="24" font-weight="900" letter-spacing="5">256435</text>
      <circle cx="1094" cy="397" r="18" fill="#fff" stroke="#D8E1EF"/><text x="1089" y="403" fill="#111827" font-size="16" font-weight="900">↗</text>
      <circle cx="1178" cy="397" r="18" fill="#fff" stroke="#D8E1EF"/><text x="1172" y="403" fill="#111827" font-size="16" font-weight="900">✎</text>
    </g>
  </g>
</svg>
